{"accessors" : [{"bufferView" : 0, "byteOffset" : 0, "componentType" : 5123, "count" : 1392, "type" : "SCALAR", "max" : [1237], "min" : [0]}, {"bufferView" : 1, "byteOffset" : 0, "componentType" : 5126, "count" : 1238, "type" : "VEC3", "max" : [1.6338000297546387, 5.846499919891357, -0.6590999960899353], "min" : [-6.633900165557861, -5.846499919891357, -0.6638000011444092], "name" : "POSITION"}, {"bufferView" : 1, "byteOffset" : 12, "componentType" : 5126, "count" : 1238, "type" : "VEC3", "max" : [1.0000044107437134, 1.0000044107437134, 1.0000044107437134], "min" : [-1.0000044107437134, -1.0000044107437134, -1.0000044107437134], "name" : "NORMAL"}, {"bufferView" : 1, "byteOffset" : 24, "componentType" : 5126, "count" : 1238, "type" : "VEC2", "max" : [0.9962000250816345, 0.9940000176429749], "min" : [0.005499999970197678, 0.3012999892234802], "name" : "TEXCOORD_0"}, {"bufferView" : 0, "byteOffset" : 2784, "componentType" : 5123, "count" : 1392, "type" : "SCALAR", "max" : [1237], "min" : [0]}, {"bufferView" : 2, "byteOffset" : 0, "componentType" : 5126, "count" : 1238, "type" : "VEC3", "max" : [4.043900012969971, 4.801300048828125, 0.305400013923645], "min" : [-4.223800182342529, -6.7241997718811035, -0.3246000111103058], "name" : "POSITION"}, {"bufferView" : 2, "byteOffset" : 12, "componentType" : 5126, "count" : 1238, "type" : "VEC3", "max" : [1.0000044107437134, 1.0000044107437134, 0.9999942779541016], "min" : [-1.0000044107437134, -1.0000044107437134, -0.9999942779541016], "name" : "NORMAL"}, {"bufferView" : 2, "byteOffset" : 24, "componentType" : 5126, "count" : 1238, "type" : "VEC2", "max" : [0.9962000250816345, 0.9940000176429749], "min" : [0.005499999970197678, 0.3012999892234802], "name" : "TEXCOORD_0"}, {"bufferView" : 0, "byteOffset" : 5568, "componentType" : 5123, "count" : 1392, "type" : "SCALAR", "max" : [1237], "min" : [0]}, {"bufferView" : 3, "byteOffset" : 0, "componentType" : 5126, "count" : 1238, "type" : "VEC3", "max" : [6.723800182342529, 3.5420000553131104, 1.5282000303268433], "min" : [-1.5439000129699707, -7.662300109863281, 0.21649999916553497], "name" : "POSITION"}, {"bufferView" : 3, "byteOffset" : 12, "componentType" : 5126, "count" : 1238, "type" : "VEC3", "max" : [1.0000044107437134, 1.0000044107437134, 0.9999611973762512], "min" : [-1.0000044107437134, -1.0000044107437134, -0.9999611973762512], "name" : "NORMAL"}, {"bufferView" : 3, "byteOffset" : 24, "componentType" : 5126, "count" : 1238, "type" : "VEC2", "max" : [0.9962000250816345, 0.9940000176429749], "min" : [0.005499999970197678, 0.3012999892234802], "name" : "TEXCOORD_0"}], "asset" : {"generator" : "Aspose.3D 22.1", "version" : "2.0"}, "buffers" : [{"uri" : "data:application/octet-stream;base64,", "byteLength" : 142000}], "bufferViews" : [{"buffer" : 0, "byteOffset" : 0, "byteLength" : 8352, "target" : 34963}, {"buffer" : 0, "byteOffset" : 8356, "byteLength" : 44544, "byteStride" : 32, "target" : 34962}, {"buffer" : 0, "byteOffset" : 52904, "byteLength" : 44544, "byteStride" : 32, "target" : 34962}, {"buffer" : 0, "byteOffset" : 97452, "byteLength" : 44544, "byteStride" : 32, "target" : 34962}], "materials" : [{"name" : "Paper", "pbrMetallicRoughness" : {"baseColorFactor" : [0.5, 0.5, 0.5, 1], "metallicFactor" : 0, "roughnessFactor" : 1}, "emissiveFactor" : [0, 0, 0], "alphaMode" : "OPAQUE", "doubleSided" : false}, {"name" : "Paper2", "pbrMetallicRoughness" : {"baseColorFactor" : [0.5, 0.5, 0.5, 1], "metallicFactor" : 0, "roughnessFactor" : 1}, "emissiveFactor" : [0, 0, 0], "alphaMode" : "OPAQUE", "doubleSided" : false}, {"name" : "Material__27", "pbrMetallicRoughness" : {"baseColorFactor" : [0.5, 0.5, 0.5, 1], "metallicFactor" : 0, "roughnessFactor" : 1}, "emissiveFactor" : [0, 0, 0], "alphaMode" : "OPAQUE", "doubleSided" : false}], "meshes" : [{"primitives" : [{"attributes" : {"POSITION" : 1, "NORMAL" : 2, "TEXCOORD_0" : 3}, "indices" : 0, "material" : 0, "mode" : 4}]}, {"primitives" : [{"attributes" : {"POSITION" : 5, "NORMAL" : 6, "TEXCOORD_0" : 7}, "indices" : 4, "material" : 1, "mode" : 4}]}, {"primitives" : [{"attributes" : {"POSITION" : 9, "NORMAL" : 10, "TEXCOORD_0" : 11}, "indices" : 8, "material" : 2, "mode" : 4}]}], "nodes" : [{"mesh" : 0, "name" : "Paper"}, {"mesh" : 1, "name" : "Paper2"}, {"mesh" : 2, "name" : "Paper3"}], "scene" : 0, "scenes" : [{"nodes" : [0, 1, 2]}]}