{"accessors" : [{"bufferView" : 0, "byteOffset" : 0, "componentType" : 5123, "count" : 18750, "type" : "SCALAR", "max" : [18749], "min" : [0]}, {"bufferView" : 1, "byteOffset" : 0, "componentType" : 5126, "count" : 18750, "type" : "VEC3", "max" : [4.810699939727783, 7.993899822235107, 1.7228000164031982], "min" : [-4.813799858093262, -6.156599998474121, -0.0007999999797903001], "name" : "POSITION"}, {"bufferView" : 1, "byteOffset" : 12, "componentType" : 5126, "count" : 18750, "type" : "VEC3", "max" : [1.0000044107437134, 0.9999845623970032, 1.0000040531158447], "min" : [-1.0000044107437134, -0.9984182119369507, -1.0000044107437134], "name" : "NORMAL"}, {"bufferView" : 1, "byteOffset" : 24, "componentType" : 5126, "count" : 18750, "type" : "VEC2", "max" : [14.381199836730957, 7.4293999671936035], "min" : [-13.989299774169922, -7.377399921417236], "name" : "TEXCOORD_0"}], "asset" : {"generator" : "Aspose.3D 22.1", "version" : "2.0"}, "buffers" : [{"uri" : "data:application/octet-stream;base64,", "byteLength" : 637508}], "bufferViews" : [{"buffer" : 0, "byteOffset" : 0, "byteLength" : 37500, "target" : 34963}, {"buffer" : 0, "byteOffset" : 37504, "byteLength" : 600000, "byteStride" : 32, "target" : 34962}], "materials" : [{"name" : "wire_008110135", "pbrMetallicRoughness" : {"baseColorFactor" : [0.5, 0.5, 0.5, 1], "metallicFactor" : 0, "roughnessFactor" : 1}, "emissiveFactor" : [0, 0, 0], "alphaMode" : "OPAQUE", "doubleSided" : false}], "meshes" : [{"primitives" : [{"attributes" : {"POSITION" : 1, "NORMAL" : 2, "TEXCOORD_0" : 3}, "indices" : 0, "material" : 0, "mode" : 4}]}], "nodes" : [{"mesh" : 0, "name" : "scissors001"}], "scene" : 0, "scenes" : [{"nodes" : [0]}]}